<?xml version="1.0" encoding="utf-8"?>
<!-- Generator: Adobe Illustrator 25.3.0, SVG Export Plug-In . SVG Version: 6.00 Build 0)  -->
<svg version="1.1" id="Layer_1" xmlns="http://www.w3.org/2000/svg" xmlns:xlink="http://www.w3.org/1999/xlink" x="0px" y="0px"
	 viewBox="0 0 48 48" style="enable-background:new 0 0 48 48;" xml:space="preserve">
<style type="text/css">
	.st0{fill:none;}
	.st1{fill:#F0F2F6;}
	.st2{fill:#333842;}
	.st3{fill:#CECFD2;}
	.st4{fill:#B7B9BD;}
	.st5{fill:#C5C0C0;}
	.st6{fill:#343943;}
	.st7{fill:#C5C1C1;}
	.st8{fill:#747880;}
</style>
<g>
	<path class="st0" d="M48,24.2c0,7.8,0,15.6,0,23.4c0,0.3-0.1,0.4-0.4,0.4c-15.7,0-31.5,0-47.2,0C0.1,48,0,47.9,0,47.6
		C0,31.9,0,16.1,0,0.4C0,0.1,0.1,0,0.4,0c15.7,0,31.5,0,47.2,0C47.9,0,48,0.1,48,0.4c0,7.5,0,15,0,22.5c-0.3-0.1-0.2-0.3-0.2-0.5
		c-0.2-2-0.5-3.9-1.1-5.8c-0.1-0.2-0.1-0.4-0.2-0.6c-1-2.8-2.5-5.4-4.4-7.6C39.9,6,37.3,4,34.4,2.6c-2.5-1.2-5.1-1.9-7.8-2.2
		c-0.9-0.1-1.8-0.2-2.7-0.2c-2.6,0.1-5.1,0.5-7.5,1.3c-0.1,0-0.2,0.1-0.3,0.1c-0.8,0.3-1.6,0.6-2.3,0.9c-1.4,0.7-2.6,1.5-3.9,2.3
		C8,6.3,6.4,7.9,5,9.8c-2.4,3.3-3.9,6.9-4.5,11c-0.2,1.6-0.2,3.1-0.2,4.7c0,0.2,0,0.4,0.1,0.6c0.1,1.6,0.5,3.2,0.9,4.7
		c1,2.9,2.3,5.6,4.2,8c0.4,0.6,0.9,1.1,1.4,1.6c1.3,1.4,2.8,2.6,4.4,3.6c0.4,0.2,0.7,0.5,1.2,0.7c1.6,1,3.3,1.6,5.1,2.1
		c1,0.3,2,0.4,3,0.7c0.5,0.1,1,0.1,1.5,0.1c1.4,0.1,2.8,0.1,4.2,0c2-0.2,3.8-0.6,5.7-1.3c1.4-0.5,2.8-1.1,4.1-1.9
		c0.7-0.5,1.6-0.9,2.3-1.4c0.6-0.3,1-0.9,1.5-1.3c0.9-0.8,1.7-1.6,2.5-2.6c2.5-3.1,4.1-6.5,4.9-10.4c0.2-1.3,0.4-2.5,0.4-3.8
		C47.8,24.6,47.7,24.3,48,24.2z"/>
	<path class="st1" d="M48,24.2c-0.1,0.1-0.1,0.3-0.1,0.4c-0.1,3.1-0.7,6.1-2,8.9c-0.8,2-2,3.7-3.3,5.4c-0.1,0.1-0.1,0.1-0.2,0.2
		c-0.5,0.1-0.9,0.4-1.4,0.4c-0.2-0.1-0.2-0.3-0.2-0.5c0-1.8-0.5-3.5-1.4-5c-0.1-0.3,0.1-0.5,0.2-0.7c1-2.2,1.8-4.6,2.1-7
		c0.1-0.4,0-0.8,0.2-1.2C42,25,42.1,25,42.2,25c1.8-0.4,3.1-1.4,4.1-2.9c0.1-0.2,0.2-0.5,0.5-0.3c0.5,0.6,0.8,1.4,1.1,2.1
		C47.9,23.9,47.9,24.1,48,24.2C48,24.2,48,24.2,48,24.2z"/>
	<path class="st2" d="M47.8,23.9c-0.3-0.7-0.7-1.4-1-2.1c-0.2-0.3-0.6-0.3-0.6-0.7c0.1-0.8,0.2-1.7,0.2-2.5c0.1-0.4,0.1-0.7,0-1.1
		c-0.1-0.5-0.1-1,0-1.5c0,0,0,0,0.1-0.1c0.3,0.5,0.4,1,0.6,1.6c0.5,1.6,0.7,3.3,0.8,5.1c0,0.1-0.1,0.3,0.1,0.3c0,0.1,0,0.1,0,0.2
		c-0.1,0.2,0,0.4,0,0.6C47.9,23.8,48,23.9,47.8,23.9z"/>
	<path class="st3" d="M47.9,23.7c0-0.2-0.1-0.4,0.1-0.6C48,23.3,48,23.5,47.9,23.7C48,23.7,47.9,23.7,47.9,23.7z"/>
	<path class="st4" d="M47.9,23.7C47.9,23.7,48,23.7,47.9,23.7C48,23.8,48,24,48,24.1c-0.1,0-0.2-0.1-0.2-0.2
		C48,23.9,47.9,23.8,47.9,23.7z"/>
	<path class="st1" d="M5.4,38.8c-1.8-2.3-3.2-4.8-4.1-7.5c-0.1-0.2-0.1-0.3-0.2-0.5c0.1-0.6,0.2-1.2,0.2-1.9c0-0.6,0-1.3,0-1.9
		c0.6-1.3,1.5-2.3,2.7-3c0.2-0.1,0.4-0.2,0.6-0.2c0.6,0.4,0.9,1,1.4,1.5c1.2,1.3,2.4,2.5,4,3.3c0.2,0.1,0.4,0.2,0.5,0.4
		c0.2,1.4,0.2,2.8,0.5,4.2c0.4,1.7,0.9,3.4,1.9,4.8c0.1,0.1,0.2,0.3,0.2,0.5c0,0.2-0.1,0.3-0.2,0.4c-0.8,0.7-1.6,1.5-2.5,2.2
		c-0.1,0.1-0.2,0.1-0.2,0.1c-0.5,0-1-0.2-1.4-0.4C7.7,40.3,6.5,39.7,5.4,38.8z"/>
	<path class="st2" d="M10.3,41.3c0.9-0.8,1.9-1.7,2.8-2.5c0.1-0.3,0.3-0.5,0.7-0.4c0.6,0.4,1.2,0.8,1.8,1.2c1.9,1.1,3.9,1.7,6.1,1.8
		c0.6,0,1.1,0,1.7,0.1c0.2,0.2,0.2,0.4,0.3,0.6c0.4,1.3,0.9,2.5,1.3,3.8c0.1,0.3,0.2,0.6-0.2,0.8c-1.4,0.5-2.8,1-4.3,0.9
		c-2.6-0.4-5.1-1.2-7.5-2.4c-0.2-0.1-0.4-0.3-0.6-0.4c-0.5-0.3-0.8-0.8-1.2-1.2c-0.5-0.5-1-1-1.3-1.6C9.8,41.5,10,41.4,10.3,41.3z"
		/>
	<path class="st1" d="M0.2,25.5c0-1.1-0.1-2.2,0-3.2c0.2-2.2,0.6-4.3,1.3-6.3c0.8-2.1,1.8-4,3-5.8C4.7,9.9,4.8,9.8,5,9.6
		c0.4-0.2,0.9-0.4,1.4-0.5c0.2-0.1,0.3-0.2,0.5,0c0.1,0.5-0.1,0.9-0.1,1.3c-0.2,1.1,0,2.2,0.1,3.3c0,0.1,0,0.2,0,0.4
		c0,0.3-0.2,0.6-0.3,0.9c-0.9,2.1-1.5,4.4-1.6,6.7c0,0.4-0.1,0.9-0.1,1.3c-0.1,0.3-0.2,0.5-0.4,0.6C3,24.2,2.1,25,1.4,26.2
		c-0.1,0.1-0.1,0.2-0.2,0.3c-0.5,0-0.5-0.5-0.8-0.8C0.3,25.6,0.3,25.5,0.2,25.5z"/>
	<path class="st1" d="M15.9,1.6c0.9-0.5,2-0.7,3-0.9c1.7-0.4,3.5-0.6,5.3-0.6c1.5,0,3.1,0.2,4.6,0.5C30.9,1,33,1.7,35,2.8
		c1.7,0.9,3.3,2,4.8,3.2c1.7,1.5,3.2,3.2,4.4,5c0.9,1.4,1.7,2.9,2.3,4.5c0.1,0.1,0.1,0.3,0.1,0.4l0,0c-0.3,0.1-0.4-0.2-0.4-0.4
		c-0.4-0.9-0.9-1.7-1.4-2.6c-1.5-2.3-3.4-4.2-5.7-5.7c-0.3-0.2-0.6-0.3-0.9-0.6C36.9,5.3,35.6,4,33.9,3C30.5,1.1,27,0.6,23.2,1.8
		c-0.2,0.1-0.4,0.1-0.6,0.1c-1.4-0.4-2.8-0.5-4.2-0.4c-0.7,0-1.3,0.1-1.9,0.2C16.3,1.7,16.1,1.8,15.9,1.6z"/>
	<path class="st5" d="M15.9,1.6c1.1-0.2,2.3-0.3,3.5-0.3c1.2,0,2.3,0.2,3.4,0.5c0.2,1.5,0.6,2.9,1,4.4c0.1,0.3,0.3,0.4,0.4,0.6
		c0,0.1-0.1,0.1-0.1,0.2c-1.1,0.2-2,0.9-2.9,1.5c-1.8,1.3-3.3,2.9-4.8,4.5c-0.2,0.2-0.2,0.4-0.4,0.6c-0.3-0.1-0.4-0.4-0.4-0.7
		c0.1-0.4,0.4-0.7,0.7-1c1.4-1.7,3-3.2,4.9-4.4c0.6-0.4,1.1-0.7,1.7-1c0.3-0.1,0.4-0.3,0.3-0.7c-0.2-0.9-0.5-1.8-0.7-2.8
		c-0.1-0.4-0.3-0.6-0.7-0.7c-2.9-0.6-5.7-0.2-8.3,1c-1.1,0.5-2,1.1-3,1.8c-0.1,0.1-0.2,0.2-0.4,0.2C9.8,5.3,9.8,5.1,9.7,4.9
		c1.5-1.1,3.1-2,4.8-2.8C15,1.9,15.4,1.8,15.9,1.6z"/>
	<path class="st5" d="M24.9,46.5c0.4-0.2,0.2-0.4,0.1-0.6c0.5-0.1,1.1,0,1.6,0c4.1,0.1,7.8-1.1,11.2-3.2c0.5-0.3,0.8-0.6,1.1-1.1
		c0.2-0.3,0.4-0.6,0.6-0.9c0.7-0.8,0.7-1.8,0.6-2.8c-0.1-0.9-0.4-1.8-0.8-2.6c-0.1-0.3-0.3-0.5-0.6-0.5c-0.1-0.2,0-0.2,0.1-0.3
		c0.2-0.1,0.4-0.3,0.7-0.4c0.4,0.4,0.6,1,0.8,1.5c0.4,1.1,0.7,2.3,0.7,3.5c0,0.2-0.1,0.4,0.2,0.4c-1,0.9-1.5,2.1-2.3,3.1
		c-0.1,0.1-0.2,0.3-0.3,0.4c-0.7,0.5-1.5,0.9-2.2,1.4c-1.6,0.9-3.3,1.5-5,1.9c-1.6,0.4-3.3,0.5-5,0.5C25.8,46.7,25.3,46.7,24.9,46.5
		z"/>
	<path class="st1" d="M24.9,46.5c2.8,0.3,5.6-0.1,8.4-0.9c1.1-0.3,2-0.8,3.1-1.2c-0.6,0.5-1.4,0.8-2.1,1.2c-1.2,0.6-2.5,1.1-3.8,1.4
		c-1.3,0.3-2.5,0.6-3.8,0.7c-0.7,0.1-1.4,0.1-2,0.1c-0.8,0.1-1.7,0-2.5-0.1c-0.5-0.1-0.9,0.1-1.4-0.1c1.3-0.1,2.6-0.5,3.9-0.9
		C24.6,46.6,24.7,46.5,24.9,46.5z"/>
	<path class="st2" d="M9.7,4.9c0.2,0,0.1,0.3,0.3,0.4c0.1,0.1,0,0.2,0,0.3c-0.7,1-1.4,2-2.1,3.1C7.8,8.7,7.7,8.8,7.6,8.9
		C7.3,8.9,7.1,9.2,6.7,9.1C6.3,9.2,5.9,9.4,5.4,9.6C5.3,9.6,5.1,9.7,5,9.6C6.3,7.8,7.9,6.2,9.7,4.9z"/>
	<path class="st1" d="M10,41.9c0.8,0.9,1.6,1.9,2.4,2.8c-0.5-0.1-0.9-0.4-1.3-0.7c-1.5-0.9-2.8-2-4-3.3c-0.1-0.1-0.2-0.2-0.3-0.3
		c0.1-0.1,0.3,0,0.4,0c0.8,0.5,1.6,0.9,2.5,1.2C9.9,41.7,9.9,41.8,10,41.9z"/>
	<path class="st2" d="M0.4,25.6c0.2,0.3,0.5,0.6,0.7,0.9c0.2,0.1,0.3,0.3,0.4,0.5c0,1.1,0.1,2.2-0.1,3.3c0,0.2,0.1,0.5-0.2,0.6
		c-0.3-1.3-0.7-2.7-0.8-4c0-0.3,0-0.5-0.1-0.8C0.3,25.9,0.1,25.7,0.4,25.6z"/>
	<path class="st6" d="M38.5,43c0.6-1.1,1.4-2.1,2.1-3.2c0.1-0.2,0.4-0.2,0.6-0.3c0.3-0.1,0.6-0.2,0.9-0.4c0.1,0,0.2-0.1,0.4,0
		c-0.9,1-1.8,2-2.9,2.9C39.2,42.3,39.1,42.8,38.5,43z"/>
	<path class="st7" d="M10,41.9c-1-0.3-2-0.8-2.9-1.4c-0.1-0.1-0.2-0.1-0.3-0.1c-0.6-0.4-1-1-1.4-1.6c0.7,0.2,1.2,0.7,1.7,1
		c0.8,0.5,1.6,0.9,2.5,1.3c0.2,0.1,0.4,0.2,0.6,0.1C10.1,41.4,9.9,41.6,10,41.9z"/>
	<path class="st8" d="M0.4,25.6c-0.2,0.1,0,0.3-0.1,0.4c-0.1-0.2-0.1-0.4-0.1-0.6C0.3,25.5,0.4,25.5,0.4,25.6z"/>
	<path class="st2" d="M39.5,34c-0.2,0.4-0.6,0.3-0.8,0.6c-0.1,0.1-0.2,0.2-0.3,0.2c-2.1,0.8-4.2,1-6.5,0.8c-0.2,0-0.5,0-0.7-0.1
		c-0.3-0.1-0.4-0.3-0.5-0.5c-0.1-0.3-0.2-0.7-0.3-1c0,0,0-0.1,0-0.2c-0.3-1.5-0.5-3.1-0.8-4.7c-0.1-0.8-0.3-1.6-0.4-2.4
		c0-0.2-0.1-0.5,0-0.7c0.4-0.7,1.1-1.3,1.7-1.9c1.4-1.4,3-2.7,4.7-3.9c0.4-0.3,0.8,0,1.2,0.1c1.7,0.9,3.2,2.1,4.6,3.5
		c0.3,0.3,0.5,0.5,0.7,0.8c0.1,0.1,0.2,0.3,0.1,0.5c-0.2,3-1.1,5.8-2.4,8.5C39.6,33.7,39.5,33.9,39.5,34z"/>
	<path class="st5" d="M42,25.1c0-0.4-0.3-0.6-0.5-0.8c-0.1-0.1-0.2-0.3-0.4-0.4c0.2-0.1,0.4,0.1,0.5,0.2c0.3,0.3,0.7,0.3,1,0.1
		c1.2-0.4,2.1-1.2,2.9-2.2c0.2-0.3,0.3-0.6,0.6-0.8c0.2,0.2,0.5,0.3,0.5,0.6c-0.3-0.1-0.3,0.2-0.4,0.3c-1,1.4-2.2,2.4-3.8,2.9
		C42.4,25,42.2,25.1,42,25.1z"/>
	<path class="st1" d="M46.2,21.2c-0.8,1.3-1.7,2.3-3.1,2.9c-0.7,0.3-1.2,0.4-1.8-0.2c0,0-0.1-0.1-0.2-0.1c-1.4-1.3-2.8-2.5-4.5-3.4
		c-0.6-0.3-0.6-0.7-0.6-1.3c0.1-3.1-0.7-6-2.1-8.7c-0.1-0.2-0.2-0.3-0.2-0.5c0-0.2,0.1-0.3,0.3-0.4c1.1-0.8,2.2-1.5,3.2-2.2
		c0.1-0.1,0.2-0.1,0.3-0.1c0.6,0.1,1,0.5,1.5,0.8c2.3,1.5,4.1,3.5,5.6,5.9c0.6,0.9,1.1,1.9,1.5,2.9c0.3,0.6,0.4,1.2,0.3,1.9
		C46.5,19.5,46.4,20.4,46.2,21.2z"/>
	<path class="st5" d="M46.5,18.6c0.1-1.5-0.8-2.7-1.5-3.9c-1-1.9-2.3-3.5-3.9-5c-1.1-1-2.2-1.9-3.5-2.5c0.1-0.3,0.3-0.4,0.6-0.5
		c1.3,0.8,2.6,1.6,3.7,2.7c1.8,1.7,3.2,3.8,4.3,6c0.1,0.2,0.1,0.4,0.4,0.4c0,0.7,0,1.4,0.1,2.1C46.6,18.3,46.6,18.5,46.5,18.6z"/>
	<path class="st2" d="M15.5,12.8c0.1,0.2,0.3,0.4,0.4,0.6c0.3,0.1,0.3,0.4,0.4,0.6c0.7,1.8,1,3.7,1.4,5.6c0.1,0.7,0.3,1.4,0.4,2.2
		c0,0.3,0.1,0.5,0.1,0.8c-0.3,0.5-0.7,0.9-1.2,1.2c-0.9,0.9-1.9,1.7-2.8,2.6c-0.9,0.8-1.8,1.7-2.7,2.6c-0.1,0.1-0.2,0.2-0.4,0.2
		c-0.2,0-0.5-0.1-0.6-0.3c-2.2-1.1-3.9-2.8-5.4-4.7C5,24.2,4.9,24.1,4.8,24c-0.4-0.2-0.2-0.5-0.2-0.8C4.7,20,5.3,17,6.7,14.2
		C6.8,14,7.1,14,7.4,13.8c2.2-1,4.6-1.5,7-1.3C14.8,12.5,15.2,12.5,15.5,12.8z"/>
	<path class="st5" d="M10.5,29.1c0.2,0.1,0.4,0.1,0.7,0.2c0.2,0.4,0.2,0.8,0.2,1.3c0.1,1.6,0.3,3.1,0.8,4.6c0.3,1,0.8,1.8,1.3,2.7
		c0.1,0.2,0.3,0.3,0.2,0.5c-0.3,0-0.4,0.3-0.7,0.4c0-0.2-0.1-0.3-0.2-0.5c-1.2-1.8-1.8-3.8-2.1-6C10.6,31.3,10.6,30.2,10.5,29.1z"/>
	<path class="st5" d="M4.6,23.1c0,0.3-0.1,0.6,0.2,0.8c-1.1,0.3-1.8,1.1-2.5,1.9c-0.3,0.3-0.5,0.7-0.8,1.1c-0.2-0.1-0.3-0.3-0.4-0.5
		c0.7-1.3,1.6-2.3,3-3C4.3,23.4,4.5,23.3,4.6,23.1z"/>
	<path class="st1" d="M13.8,38.3c-0.7-0.7-1.1-1.6-1.5-2.6c-0.7-1.7-1-3.4-1.1-5.2c0-0.4-0.1-0.8-0.1-1.3c2.2-2.3,4.7-4.4,7-6.6
		c0.2-0.1,0.4,0,0.5,0.1c3.2,1.1,6.5,2.2,9.8,3.3c0.4,0.2,0.6,0.4,0.7,0.8c0.4,2.3,0.8,4.6,1.2,6.9c0.1,0.2,0.1,0.3,0.1,0.5
		c0.3,0.7,0.1,1.2-0.4,1.7c-0.7,0.9-1.5,1.8-2.3,2.6c-1.2,1.1-2.6,2.1-4.1,2.8c-0.1,0-0.1,0-0.2,0c-3,0.2-5.8-0.6-8.4-2.1
		C14.6,39,14.2,38.7,13.8,38.3z"/>
	<path class="st1" d="M31.1,35.5c0.7,0,1.4,0.1,2.1,0.1c1.7,0,3.3-0.3,4.9-0.8c0.2-0.1,0.3-0.1,0.5-0.1c0.4-0.1,0.6,0.2,0.8,0.5
		c0.7,1.4,1,2.8,0.9,4.3c0,0.2-0.1,0.3-0.2,0.5c-0.5,0.7-0.9,1.3-1.4,2c-0.2,0.4-0.6,0.6-1,0.8c-2.5,1.5-5.1,2.6-8,3
		c-1.5,0.2-3.1,0.2-4.6,0.2c-0.1,0-0.2-0.1-0.3-0.1c-0.4-1.3-0.9-2.5-1.3-3.8c0-0.3,0.2-0.3,0.3-0.4c2.7-1.3,4.8-3.4,6.6-5.7
		C30.7,35.7,30.8,35.5,31.1,35.5z"/>
	<path class="st5" d="M31.1,35.5c-0.9,1.2-1.9,2.4-3,3.4c-1.2,1.1-2.4,2-3.8,2.8c-0.2,0.1-0.4,0.2-0.6,0.4c-0.1-0.2-0.2-0.4-0.2-0.6
		c0.3-0.3,0.7-0.4,1.1-0.7c1.1-0.6,2-1.3,2.9-2.1c0.9-0.8,1.6-1.7,2.3-2.5c0.4-0.5,0.8-1.1,0.6-1.8c-0.1-0.1-0.1-0.3,0-0.4
		c0.1,0.3,0.2,0.6,0.3,1C30.8,35.1,30.9,35.3,31.1,35.5z"/>
	<path class="st5" d="M7.3,14c-0.2,0.1-0.4,0.2-0.7,0.3c-0.2-1.7-0.3-3.4,0.1-5.2C7,9,7.3,8.9,7.6,8.8c0,0.5-0.2,1-0.3,1.5
		c-0.1,1-0.1,2,0,3C7.3,13.5,7.4,13.7,7.3,14z"/>
	<path class="st2" d="M38.2,6.8C38,7,37.8,7.1,37.6,7.3c-1.2,0.8-2.5,1.7-3.7,2.5c-0.1,0.2-0.3,0.4-0.6,0.3c-0.8-0.4-1.6-1-2.5-1.4
		c-2-1-4-1.6-6.2-1.8c-0.1,0-0.3,0-0.4-0.1c-0.4,0-0.5-0.2-0.6-0.6c-0.3-1.3-0.6-2.6-0.9-3.9c0-0.2-0.1-0.4,0.1-0.5
		C24.1,1.4,25.4,1,26.8,1C31.6,1,35.4,2.9,38.2,6.8z"/>
	<path class="st1" d="M24.2,6.8c2.8,0.2,5.3,1.1,7.7,2.4c0.5,0.3,1,0.6,1.5,0.9c0.2,0.1,0.3,0.3,0.4,0.5c1.2,2.3,1.9,4.8,2,7.4
		c0,0.6,0.1,1.2,0,1.9c0,0.2-0.1,0.3-0.1,0.4c-2.3,1.7-4.5,3.4-6.3,5.6c-0.2,0.1-0.3,0-0.5,0c-3.4-1.2-6.8-2.3-10.2-3.4
		c-0.2-0.1-0.5-0.1-0.6-0.4c-0.5-2.4-0.8-4.7-1.5-7c-0.2-0.5-0.4-1-0.6-1.5c0.1-0.6,0.6-0.9,0.9-1.3c1.3-1.4,2.6-2.8,4.2-3.9
		c0.8-0.5,1.5-1,2.4-1.4C23.7,6.8,23.9,6.9,24.2,6.8z"/>
	<path class="st1" d="M7.3,14c-0.2-0.3-0.1-0.6-0.2-0.9C7.1,11.8,7,10.6,7.4,9.3C7.4,9.1,7.5,9,7.6,8.8C8.4,7.6,9.2,6.4,10,5.2
		c0.9-0.6,1.8-1.3,2.8-1.8c2.1-1.1,4.4-1.6,6.8-1.6c0.9,0,1.7,0.2,2.5,0.4c0.2,0,0.3,0.2,0.3,0.4c0.3,1.1,0.5,2.2,0.8,3.3
		c0.1,0.2,0,0.4-0.2,0.5C20.8,7.5,19,9,17.3,10.8c-0.6,0.6-1.3,1.3-1.7,2.1c-2.6-0.6-5.1,0-7.6,0.9C7.7,13.8,7.5,13.9,7.3,14z"/>
	<path class="st5" d="M18,22c0.1,0.2,0.3,0.2,0.5,0.3c3.3,1.1,6.6,2.2,10,3.4c0.3,0.1,0.5,0.2,0.8,0.3c-0.2,0.6,0.1,1.2,0.2,1.8
		c0.3,2.1,0.6,4.1,1,6.2c0,0-0.1,0-0.1,0c-0.3-1.1-0.4-2.2-0.6-3.3c-0.2-1.2-0.5-2.4-0.7-3.7c-0.1-0.4-0.3-0.6-0.6-0.7
		c-3.3-1.1-6.6-2.2-9.9-3.4c-0.1,0-0.2-0.1-0.3-0.1C18.1,22.5,18,22.2,18,22z"/>
	<path class="st5" d="M35.6,20.3c0.2-2.5-0.2-4.8-0.9-7.2c-0.3-1-0.8-2-1.3-3c0.2,0,0.4-0.2,0.6-0.3c0.4,1,0.9,1.9,1.3,2.9
		c0.7,2,1.1,4.1,1.1,6.2c0,0.5-0.1,1.1,0.5,1.5c-0.1,0-0.3-0.1-0.4-0.1C36,20.1,35.8,20.1,35.6,20.3z"/>
	<path class="st5" d="M30.3,33.9C30.3,33.9,30.4,33.9,30.3,33.9c0.1,0,0.1,0,0.1,0.1c0,0.1,0,0.3,0,0.4C30.3,34.2,30.3,34,30.3,33.9
		z"/>
</g>
</svg>
