<svg xmlns="http://www.w3.org/2000/svg" viewBox="0 0 32 32">
  <circle cx="16" cy="16" r="15" fill="#fff" stroke="#333" stroke-width="1"/>
  <path d="M16 1a15 15 0 0 0-10.6 25.6l4.1-5.6 6.5.8 6.5-.8 4.1 5.6A15 15 0 0 0 16 1z" fill="none" stroke="#333" stroke-width="0.5"/>
  <polygon points="16,6 20,10 18,15 14,15 12,10" fill="#333"/>
  <polygon points="8,12 12,10 14,15 11,19 6,17" fill="#333"/>
  <polygon points="24,12 20,10 18,15 21,19 26,17" fill="#333"/>
  <polygon points="11,19 14,15 18,15 21,19 19,24 13,24" fill="#333"/>
  <polygon points="6,17 11,19 13,24 9,27" fill="#333"/>
  <polygon points="26,17 21,19 19,24 23,27" fill="#333"/>
</svg>
